<svg version="1.2" xmlns="http://www.w3.org/2000/svg" viewBox="0 0 3600 3600" width="3600" height="3600">
	<title>logo-1</title>
	<style>
		.s0 { opacity: .5;fill: #ff0000 } 
	</style>
	<path id="Shape 1" class="s0" d="m1262.5 2812c-672.7 0-1216.5-453.9-1216.5-1015.5 0-561.6 543.8-1015.5 1216.5-1015.5 672.7 0 1216.5 453.9 1216.5 1015.5 0 561.6-543.8 1015.5-1216.5 1015.5zm0 0c-672.7 0-1216.5-453.9-1216.5-1015.5 0-561.6 543.8-1015.5 1216.5-1015.5 672.7 0 1216.5 453.9 1216.5 1015.5 0 561.6-543.8 1015.5-1216.5 1015.5zm0 0c-672.7 0-1216.5-453.9-1216.5-1015.5 0-561.6 543.8-1015.5 1216.5-1015.5 672.7 0 1216.5 453.9 1216.5 1015.5 0 561.6-543.8 1015.5-1216.5 1015.5z"/>
	<path id="Shape 1 copy" class="s0" d="m2337.5 2819c-672.7 0-1216.5-453.9-1216.5-1015.5 0-561.6 543.8-1015.5 1216.5-1015.5 672.7 0 1216.5 453.9 1216.5 1015.5 0 561.6-543.8 1015.5-1216.5 1015.5zm0 0c-672.7 0-1216.5-453.9-1216.5-1015.5 0-561.6 543.8-1015.5 1216.5-1015.5 672.7 0 1216.5 453.9 1216.5 1015.5 0 561.6-543.8 1015.5-1216.5 1015.5zm0 0c-672.7 0-1216.5-453.9-1216.5-1015.5 0-561.6 543.8-1015.5 1216.5-1015.5 672.7 0 1216.5 453.9 1216.5 1015.5 0 561.6-543.8 1015.5-1216.5 1015.5z"/>
	<path id="Shape 1 copy 2" class="s0" d="m2812 2337.5c0 672.7-453.9 1216.5-1015.5 1216.5-561.6 0-1015.5-543.8-1015.5-1216.5 0-672.7 453.9-1216.5 1015.5-1216.5 561.6 0 1015.5 543.8 1015.5 1216.5zm0 0c0 672.7-453.9 1216.5-1015.5 1216.5-561.6 0-1015.5-543.8-1015.5-1216.5 0-672.7 453.9-1216.5 1015.5-1216.5 561.6 0 1015.5 543.8 1015.5 1216.5zm0 0c0 672.7-453.9 1216.5-1015.5 1216.5-561.6 0-1015.5-543.8-1015.5-1216.5 0-672.7 453.9-1216.5 1015.5-1216.5 561.6 0 1015.5 543.8 1015.5 1216.5z"/>
	<path id="Shape 1 copy 3" class="s0" d="m2819 1262.5c0 672.7-453.9 1216.5-1015.5 1216.5-561.6 0-1015.5-543.8-1015.5-1216.5 0-672.7 453.9-1216.5 1015.5-1216.5 561.6 0 1015.5 543.8 1015.5 1216.5zm0 0c0 672.7-453.9 1216.5-1015.5 1216.5-561.6 0-1015.5-543.8-1015.5-1216.5 0-672.7 453.9-1216.5 1015.5-1216.5 561.6 0 1015.5 543.8 1015.5 1216.5zm0 0c0 672.7-453.9 1216.5-1015.5 1216.5-561.6 0-1015.5-543.8-1015.5-1216.5 0-672.7 453.9-1216.5 1015.5-1216.5 561.6 0 1015.5 543.8 1015.5 1216.5z"/>
</svg>