<svg version="1.2" xmlns="http://www.w3.org/2000/svg" viewBox="0 0 3600 3600" width="3600" height="3600">
	<title>logo-svg</title>
	<style>
		.s0 { fill: none;stroke: #ff0000;stroke-miterlimit:100;stroke-width: 20 } 
	</style>
	<path id="LogoWOShape 1" class="s0" d="m1264.5 2814c-679.4 0-1228.5-453.5-1228.5-1014.5 0-561 549.1-1014.5 1228.5-1014.5 679.4 0 1228.5 453.5 1228.5 1014.5 0 561-549.1 1014.5-1228.5 1014.5z"/>
	<path id="LogoWOShape 1 copy" class="s0" d="m2325.5 2814c-679.4 0-1228.5-453.5-1228.5-1014.5 0-561 549.1-1014.5 1228.5-1014.5 679.4 0 1228.5 453.5 1228.5 1014.5 0 561-549.1 1014.5-1228.5 1014.5z"/>
	<path id="LogoWOShape 1 copy 2" class="s0" d="m2809.5 2330c0 679.4-453.5 1228.5-1014.5 1228.5-561 0-1014.5-549.1-1014.5-1228.5 0-679.4 453.5-1228.5 1014.5-1228.5 561 0 1014.5 549.1 1014.5 1228.5z"/>
	<path id="LogoWOShape 1 copy 3" class="s0" d="m2815.5 1269c0 679.4-453.5 1228.5-1014.5 1228.5-561 0-1014.5-549.1-1014.5-1228.5 0-679.4 453.5-1228.5 1014.5-1228.5 561 0 1014.5 549.1 1014.5 1228.5z"/>
</svg>